<?xml version="1.0" encoding="UTF-8" standalone="no"?>
<!-- Created with Inkscape (http://www.inkscape.org/) -->

<svg
   width="155.19315mm"
   height="155.19316mm"
   viewBox="0 0 155.19315 155.19316"
   version="1.1"
   id="svg1"
   xml:space="preserve"
   inkscape:version="1.4.3 (0d15f75, 2025-12-25)"
   sodipodi:docname="Icono.svg"
   xmlns:inkscape="http://www.inkscape.org/namespaces/inkscape"
   xmlns:sodipodi="http://sodipodi.sourceforge.net/DTD/sodipodi-0.dtd"
   xmlns="http://www.w3.org/2000/svg"
   xmlns:svg="http://www.w3.org/2000/svg"><sodipodi:namedview
     id="namedview1"
     pagecolor="#ffffff"
     bordercolor="#000000"
     borderopacity="0.25"
     inkscape:showpageshadow="2"
     inkscape:pageopacity="0.0"
     inkscape:pagecheckerboard="0"
     inkscape:deskcolor="#d1d1d1"
     inkscape:document-units="mm"
     inkscape:zoom="1.0093364"
     inkscape:cx="194.68236"
     inkscape:cy="561.25984"
     inkscape:window-width="2560"
     inkscape:window-height="1351"
     inkscape:window-x="-9"
     inkscape:window-y="-9"
     inkscape:window-maximized="1"
     inkscape:current-layer="svg1"><inkscape:page
       x="0"
       y="0"
       width="155.19315"
       height="155.19316"
       id="page2"
       margin="0"
       bleed="0" /></sodipodi:namedview><defs
     id="defs1" /><rect
     style="fill:#fff6d5;fill-opacity:1;stroke:#000000;stroke-width:4.465;stroke-linecap:round;stroke-linejoin:round;stroke-dasharray:none;stroke-opacity:1"
     id="rect1"
     width="150.72815"
     height="150.72815"
     x="2.232501"
     y="2.2324982" /><path
     d="m 23.710151,93.062199 c 0.0011,0.0292 0.0015,0.0584 0.0015,0.0879 v 41.796411 c 0,0.63933 0.530696,1.15704 1.185291,1.15704 l 63.603387,-0.009 c 0.65575,-3.4e-4 1.18688,-0.51913 1.18688,-1.15755 V 93.062039 Z"
     style="fill:#3a0ca3;fill-opacity:1;stroke-width:1.01214"
     id="path25" /><path
     d="m 14.021023,79.860579 7.969893,8.64097 c 0.03186,0.0345 0.107849,0.0674 0.2009,0.0674 h 66.906793 c 0.0943,0 0.13635,0.008 0.15831,0.0199 l -7.91205,-8.64045 c -0.0318,-0.0345 -0.10784,-0.0673 -0.2009,-0.0673 H 14.177754 c -0.09211,0 -0.133954,-0.008 -0.156731,-0.0206 z"
     style="fill:#00f5d4;fill-opacity:1;stroke-width:0.11502"
     id="path22" /><path
     d="m 80.666669,77.727509 c -0.6089,-0.42002 -1.00533,-1.10616 -1.00533,-1.88154 V 27.384841 c 0,-0.63933 -0.53914,-1.15703 -1.204258,-1.15703 H 14.271609 c -0.665122,0 -1.204248,0.5177 -1.204248,1.15703 v 50.342668 z"
     id="path24"
     style="fill:#3a0ca3;fill-opacity:1;stroke-width:1.01998" /><g
     inkscape:label="Capa 1"
     inkscape:groupmode="layer"
     id="layer1"
     transform="translate(-21.359731,-51.767501)"><path
       d="M 35.986147,131.4181 V 81.06257 c 0,-0.639329 0.51795,-1.157279 1.157279,-1.157279 h 61.696862 c 0.639329,0 1.157279,0.51795 1.157279,1.157279 v 48.46105 c 0,1.27832 1.036243,2.31456 2.314553,2.31456 1.27832,0 2.31456,-1.03624 2.31456,-2.31456 V 81.06257 c 0,-3.195852 -2.59054,-5.786394 -5.786392,-5.786394 H 37.143426 c -3.195853,0 -5.786394,2.590542 -5.786394,5.786394 v 50.35553 c 0,1.27832 1.036239,2.31456 2.314558,2.31456 1.278318,0 2.314557,-1.03624 2.314557,-2.31456 z m 73.998373,8.75023 v 45.03894 c 0,0.63842 -0.51851,1.15694 -1.15863,1.15728 l -62.086995,0.009 c -0.63899,0 -1.15694,-0.51795 -1.15694,-1.15728 v -41.7963 c 0,-1.27831 -1.036239,-2.31455 -2.314557,-2.31455 -1.278319,0 -2.314558,1.03624 -2.314558,2.31455 v 41.7963 c 0,3.19586 2.590541,5.7864 5.786394,5.7864 l 62.088346,-0.009 c 3.19608,-0.002 5.78606,-2.5919 5.78606,-5.78639 v -45.03894 c 0,-1.27832 -1.03624,-2.31456 -2.31456,-2.31456 -1.27832,0 -2.31456,1.03624 -2.31456,2.31456 z"
       id="path1"
       style="fill:#000000;stroke-width:0.113016" /><path
       d="m 102.16611,131.93831 c -0.0313,-0.0339 -0.10601,-0.0658 -0.19744,-0.0658 H 36.169232 c -0.09052,0 -0.131776,-0.008 -0.154153,-0.0201 l 7.830845,8.4904 c 0.03131,0.0339 0.106008,0.0658 0.197438,0.0658 h 65.741578 c 0.0927,0 0.13381,0.008 0.15539,0.0198 l -7.77411,-8.49017 z m 7.61871,13.0994 H 44.043249 c -1.368279,0 -2.680276,-0.56022 -3.599318,-1.55543 l -7.873112,-8.53617 c -2.80109,-3.03741 -0.484272,-7.70269 3.5983,-7.70269 h 65.799441 c 1.36828,0 2.68027,0.56022 3.60497,1.56154 l 7.81072,8.53007 c 2.80132,3.03763 0.48281,7.70268 -3.59943,7.70268 z M 89.569626,117.9792 c 0.639329,0 1.157279,-0.51795 1.157279,-1.15728 V 90.246211 c 0,-0.639329 -0.51795,-1.157279 -1.157279,-1.157279 H 46.27587 c -0.63865,0 -1.157278,0.518515 -1.157278,1.157279 v 26.575709 c 0,0.63876 0.518628,1.15728 1.157278,1.15728 z m 0,4.62911 H 46.27587 c -3.195061,0 -5.786394,-2.59076 -5.786394,-5.78639 V 90.246211 c 0,-3.195627 2.591333,-5.786395 5.786394,-5.786395 h 43.293756 c 3.195853,0 5.786394,2.590542 5.786394,5.786395 v 26.575709 c 0,3.19585 -2.590541,5.78639 -5.786394,5.78639 z"
       id="path2"
       style="fill:#000000;stroke-width:0.113016" /><path
       d="m 46.418242,88.864798 c -0.63865,0 -1.15755,0.518271 -1.15755,1.157035 v 26.576157 c 0,0.63876 0.5189,1.15704 1.15755,1.15704 h 43.293485 c 0.639329,0 1.157552,-0.51771 1.157552,-1.15704 V 90.021833 c 0,-0.639329 -0.518223,-1.157035 -1.157552,-1.157035 z"
       style="fill:#3a86ff;fill-opacity:1;stroke:none;stroke-width:0.113;stroke-dasharray:none;stroke-opacity:0.926829"
       id="path23" /><path
       d="m 91.262259,138.33928 h 6.943673 c 1.278319,0 2.314558,-1.03624 2.314558,-2.31455 0,-1.27832 -1.036239,-2.31456 -2.314558,-2.31456 h -6.943673 c -1.278318,0 -2.314557,1.03624 -2.314557,2.31456 0,1.27831 1.036239,2.31455 2.314557,2.31455 z m -16.086175,0 h 6.943673 c 1.278318,0 2.314557,-1.03624 2.314557,-2.31455 0,-1.27832 -1.036239,-2.31456 -2.314557,-2.31456 h -6.943673 c -1.278319,0 -2.314558,1.03624 -2.314558,2.31456 0,1.27831 1.036239,2.31455 2.314558,2.31455 z"
       id="path3"
       style="fill:#000000;stroke-width:0.113016" /><path
       style="fill:#0a0a0a;fill-opacity:1;stroke:none;stroke-opacity:0.585"
       d="m 68.632869,178.17672 c -0.0658,-2.03461 1.194948,-7.25481 2.571022,-10.64542 1.867689,-4.60194 5.409194,-9.70575 5.881218,-8.47567 0.04909,0.12793 -0.173725,0.47492 -0.612061,0.95313 -3.50042,3.81888 -6.181387,9.84468 -7.529049,16.92246 -0.165214,0.86769 -0.305222,1.42816 -0.31113,1.2455 z m 5.30437,-2.1044 c -2.719984,-0.378 -2.227521,-1.68876 3.15434,-8.39574 7.836274,-9.76573 8.598766,-12.91698 3.392419,-14.02032 -7.228833,-1.53194 -15.915399,9.56475 -14.563749,18.60453 0.58887,3.93834 -1.053615,4.17897 -1.841988,0.26985 -1.745273,-8.65387 7.445471,-21.18829 15.111018,-20.60855 8.259641,0.62467 8.004358,5.6088 -0.825593,16.11882 -3.687768,4.38944 -4.877264,6.00464 -4.877264,6.62276 0,1.18368 5.593946,0.31167 15.513157,-2.41827 6.905971,-1.90063 10.821827,-2.6873 6.573373,-1.32053 -8.479267,2.72785 -16.691291,4.8875 -19.36097,5.09167 -0.522912,0.04 -1.09865,0.0897 -1.279418,0.11056 -0.180768,0.0208 -0.628664,-0.004 -0.995325,-0.0548 z"
       id="path28" /><g
       id="g3"
       transform="matrix(0.15178803,0,0,0.15178803,92.043687,81.516085)"
       style="fill:#0c0c0c;fill-opacity:1"><path
         d="m 260.06852,68.075143 c -59.39935,-0.0097 -94.05047,7.640683 -114.58129,16.470672 -20.57765,9.021614 -27.25636,18.040765 -33.77785,26.132395 -0.99358,1.24612 -2.14165,2.76173 -3.58844,4.33372 l -3.22961,3.4695 -4.73676,0.49085 c -20.655009,1.93683 -45.710429,15.16487 -64.735611,35.14387 -19.140663,19.92161 -32.1353419,45.96196 -32.0765106,72.40214 0,34.10092 8.0248386,60.60798 21.5602476,78.81254 13.611672,18.17749 32.531044,28.94408 58.153974,31.7373 l 10.921563,1.12852 0.337725,10.91193 c 0.288713,8.57124 2.536815,18.33147 10.119432,27.32386 5.8177,6.90289 13.99007,12.37316 25.364,16.29447 11.3554,3.88234 25.83449,6.04121 43.27669,6.04121 h 101.11827 l 2.07285,9.98056 c 1.16681,5.56909 3.24067,10.02799 6.29878,13.94931 3.07662,3.90291 7.22723,7.33313 12.94796,10.29522 11.38265,5.96318 29.19888,9.6325 53.10483,9.59461 8.93929,0 17.68731,-0.40868 25.46954,-0.79291 0.0141,-6.9e-4 0.024,7.1e-4 0.038,0 v 0 c 5.58733,-0.27636 10.63683,-0.53699 15.06304,-0.53699 6.29052,-0.008 11.6348,-1.47678 16.10157,-4.02748 4.44826,-2.5691 8.07318,-6.2325 10.80336,-11.18881 2.3543,-4.32297 3.75581,-9.34702 4.07394,-13.81506 l 0.7599,-10.34555 10.37273,-1.15791 c 18.54146,-2.09923 32.11669,-8.06167 42.55477,-15.50156 10.41957,-7.44855 17.71966,-16.54861 22.78454,-25.03324 9.94674,-16.67044 14.23982,-35.8071 14.23982,-53.72475 0.0305,-16.02953 -3.51226,-31.00395 -8.78959,-41.58781 l -1.00055,-2.04312 -0.22375,-2.26964 C 495.07675,201.64044 462.33398,153.88858 416.87531,120.27701 371.49509,86.731483 313.53472,68.036168 260.06855,68.075143 Z"
         id="path18"
         style="fill:#f38fec;fill-opacity:1;stroke-width:1.08604" /><path
         class="st0"
         d="M 502.472,256.833 C 495.981,195.758 461.782,146.373 416.39,112.732 370.503,78.692 313.094,60.008 258.715,59.972 c -56.443,0.009 -91.262,7.173 -114.312,17.082 -22.776,9.644 -33.774,22.98 -39.813,30.843 -24.68,4.029 -49.262,18.348 -68.77,38.697 C 15.107,168.343 0.054,197.423 0,229.381 c 0,34.97 8.112,64.52 24.299,86.498 14.354,19.596 35.288,32.472 60.207,37.148 1.638,9.456 5.56,20.003 13.672,29.647 8.412,10.06 19.888,17.383 33.454,22.032 13.584,4.675 29.329,6.836 47.234,6.853 h 75.084 c 1.85,4.729 4.108,9.236 7.217,13.213 7.642,9.785 18.649,16.656 31.834,20.96 13.248,4.33 28.859,6.288 46.995,6.296 8.909,0 17.348,-0.407 24.512,-0.752 h 0.026 c 5.136,-0.274 9.555,-0.469 12.698,-0.469 9.466,0 18.526,-2.302 26.318,-6.819 7.793,-4.498 14.257,-11.166 18.676,-19.357 2.232,-4.154 3.702,-8.51 4.8,-12.902 16.727,-3.126 30.604,-9.236 41.407,-17.028 12.663,-9.121 21.367,-20.11 27.283,-30.09 11.556,-19.552 16.267,-41.247 16.285,-61.384 -0.019,-17.163 -3.49,-33.147 -9.529,-46.394 z m -26.61,96.016 c -4.649,7.837 -11.352,16.241 -20.916,23.121 -9.581,6.872 -22.041,12.38 -39.06,14.319 l -9.519,1.072 -0.7,9.555 c -0.292,4.127 -1.576,8.767 -3.737,12.76 -2.506,4.578 -5.835,7.962 -9.918,10.335 -4.1,2.356 -9.006,3.71 -14.78,3.718 -4.073,0 -8.714,0.24 -13.858,0.496 l 1.922,-0.088 -1.914,0.088 c -7.145,0.355 -15.178,0.736 -23.386,0.736 -21.943,0.035 -38.299,-3.356 -48.747,-8.864 -5.251,-2.736 -9.06,-5.906 -11.884,-9.511 -2.807,-3.622 -4.711,-7.74 -5.782,-12.884 l -1.904,-9.218 h -92.812 c -16.01,0 -29.302,-1.992 -39.725,-5.578 -10.44,-3.622 -17.94,-8.678 -23.28,-15.054 -6.96,-8.306 -9.024,-17.32 -9.289,-25.237 l -0.31,-10.077 -10.024,-1.044 C 72.72,328.914 55.354,318.97 42.86,302.18 30.436,285.365 23.069,260.88 23.069,229.382 23.015,204.96 34.943,180.908 52.512,162.507 c 17.463,-18.454 40.46,-30.674 59.419,-32.463 l 4.348,-0.452 2.966,-3.206 c 1.328,-1.452 2.382,-2.851 3.294,-4.002 5.986,-7.474 12.114,-15.806 31.002,-24.139 18.845,-8.156 50.652,-15.222 105.174,-15.213 49.076,-0.036 102.278,17.232 143.932,48.217 41.726,31.046 71.78,75.153 77.094,129.578 l 0.203,2.098 0.922,1.887 c 4.844,9.776 8.094,23.608 8.066,38.414 0,16.55 -3.94,34.225 -13.07,49.623 z"
         id="path1-0"
         style="fill:#0c0c0c;fill-opacity:1" /><path
         class="st0"
         d="m 357.042,146.417 h 24.059 c 5.172,0 9.378,-4.242 9.378,-9.573 0,-5.215 -4.206,-9.43 -9.378,-9.43 h -24.059 c -5.331,0 -9.555,4.216 -9.555,9.43 10e-4,5.331 4.224,9.573 9.555,9.573 z"
         id="path2-9"
         style="fill:#0c0c0c;fill-opacity:1" /><path
         class="st0"
         d="m 244.21,237.307 c 0,5.287 4.25,9.564 9.501,9.564 5.162,0 9.475,-4.276 9.475,-9.564 v -51.82 c 0,-2.399 0.709,-2.958 0.886,-3.179 3.02,-2.966 14.274,-2.966 22.164,-2.966 l 0.301,0.106 h 62.226 c 1.204,0 2.48,-0.106 3.906,-0.106 5.012,-0.221 11.202,-0.434 13.796,2.072 1.647,1.611 2.604,5.19 2.604,9.988 v 31.809 1.416 c -0.204,6.544 -0.24,17.56 7.128,25.042 2.869,2.958 8.2,6.464 16.896,6.464 h 48.89 c 5.136,0 9.352,-4.233 9.352,-9.555 0,-5.198 -4.216,-9.519 -9.352,-9.519 h -48.89 l -3.418,-0.806 c -1.736,-1.797 -1.621,-8.332 -1.621,-11.467 v -33.385 c 0,-10.307 -2.886,-18.277 -8.394,-23.599 -8.484,-8.138 -20.022,-7.801 -27.629,-7.483 -1.258,0 -2.302,0.045 -3.268,0.045 h -31.364 c 0.372,-2.622 0.372,-5.26 0.274,-7.633 v -27.602 c 0,-5.189 -4.268,-9.476 -9.448,-9.476 -5.286,0 -9.43,4.286 -9.43,9.476 v 27.752 c 0,2.222 0,5.738 -0.47,6.65 0,0 -1.301,0.832 -6.314,0.832 -1.442,0 -2.992,0 -4.684,0 -12.92,-0.16 -27.778,-0.204 -36.615,8.474 -2.887,2.922 -6.5,8.208 -6.5,16.648 v 51.822 z"
         id="path3-4"
         style="fill:#0c0c0c;fill-opacity:1" /><path
         class="st0"
         d="m 213.677,159.709 c 5.304,0 9.555,-4.348 9.555,-9.528 v -13.594 h 15.93 c 5.154,0 9.413,-4.268 9.413,-9.554 0,-5.162 -4.259,-9.493 -9.413,-9.493 h -15.93 v -10.467 c 0,-5.233 -4.251,-9.528 -9.555,-9.528 -5.154,0 -9.413,4.294 -9.413,9.528 v 43.108 c 0,5.18 4.259,9.528 9.413,9.528 z"
         id="path4"
         style="fill:#0c0c0c;fill-opacity:1" /><path
         class="st0"
         d="m 110.841,173.682 h 39.468 c 6.438,-0.229 12.565,-0.229 15.452,2.807 2.559,2.498 3.967,8.111 3.967,16.17 v 37.051 c 0,5.242 4.233,9.546 9.581,9.546 5.154,0 9.458,-4.303 9.458,-9.546 v -7.882 h 14.886 c 5.251,0 9.44,-4.277 9.44,-9.51 0,-5.251 -4.188,-9.599 -9.44,-9.599 h -14.886 v -10.06 c 0,-13.672 -3.135,-23.351 -9.626,-29.736 -8.421,-8.448 -19.8,-8.368 -28.877,-8.288 h -39.423 c -5.384,0 -9.511,4.312 -9.511,9.475 0,5.277 4.127,9.572 9.511,9.572 z"
         id="path5"
         style="fill:#0c0c0c;fill-opacity:1" /><path
         class="st0"
         d="m 135.892,229.099 c 0,-5.251 -4.365,-9.555 -9.483,-9.555 H 59.791 c -5.26,0 -9.555,4.304 -9.555,9.555 0,5.233 4.295,9.528 9.555,9.528 h 24.148 v 17.339 c 0,5.286 4.188,9.519 9.386,9.519 5.402,0 9.59,-4.233 9.59,-9.519 v -17.339 h 23.494 c 5.118,0 9.483,-4.296 9.483,-9.528 z"
         id="path6"
         style="fill:#0c0c0c;fill-opacity:1" /><path
         class="st0"
         d="m 194.576,291.412 c 1.665,0 3.242,0 4.649,0 h 76.704 c 17.498,0 30.772,-4.64 39.6,-13.884 13.566,-14.363 12.619,-35.634 11.919,-49.687 -0.124,-2.683 -0.248,-5.206 -0.248,-7.323 0,-5.296 -4.25,-9.51 -9.608,-9.51 -5.18,0 -9.368,4.215 -9.368,9.51 0,2.408 0.124,5.171 0.248,8.111 0.584,12.256 1.24,27.337 -6.854,35.873 -4.941,5.26 -13.682,7.89 -25.689,7.89 h -76.704 c -1.337,0 -2.7,0 -4.348,0 -15.133,-0.23 -40.584,-0.638 -56.753,15.319 -9.068,8.944 -13.681,21.545 -13.681,37.396 0,5.153 4.17,9.52 9.484,9.52 5.18,0 9.51,-4.366 9.51,-9.52 0,-10.768 2.594,-18.579 8.049,-23.918 10.449,-10.255 30.126,-9.954 43.09,-9.777 z"
         id="path7"
         style="fill:#0c0c0c;fill-opacity:1" /><path
         class="st0"
         d="m 323.96,332.616 c 0,-5.162 -4.171,-9.502 -9.475,-9.502 H 194.107 c -5.19,0 -9.538,4.34 -9.538,9.502 0,5.268 4.348,9.519 9.538,9.519 h 36.81 v 18.985 c 0,5.323 4.225,9.502 9.458,9.502 5.251,0 9.493,-4.179 9.493,-9.502 v -18.985 h 64.617 c 5.303,0 9.475,-4.251 9.475,-9.519 z"
         id="path8"
         style="fill:#0c0c0c;fill-opacity:1" /><path
         class="st0"
         d="m 377.887,370.065 h -4.471 v -17.693 c 0,-5.384 -4.18,-9.528 -9.475,-9.528 -5.26,0 -9.502,4.145 -9.502,9.528 v 17.693 h -32.941 c -5.242,0 -9.502,4.241 -9.502,9.528 0,5.224 4.26,9.448 9.502,9.448 h 56.39 c 5.208,0 9.484,-4.224 9.484,-9.448 -0.001,-5.288 -4.277,-9.528 -9.485,-9.528 z"
         id="path9"
         style="fill:#0c0c0c;fill-opacity:1" /><path
         class="st0"
         d="m 421.579,323.114 v -15.523 h 3.419 c 5.357,0 9.599,-4.17 9.599,-9.43 0,-5.251 -4.242,-9.555 -9.599,-9.555 h -66.459 c -5.225,0 -9.511,4.304 -9.511,9.555 0,5.26 4.286,9.43 9.511,9.43 h 43.983 v 15.523 c 0,5.358 4.313,9.502 9.556,9.502 5.233,0 9.501,-4.144 9.501,-9.502 z"
         id="path10"
         style="fill:#0c0c0c;fill-opacity:1" /><path
         class="st0"
         d="m 451.333,347.909 h -24.042 c -5.304,0 -9.546,4.18 -9.546,9.467 0,5.286 4.241,9.43 9.546,9.43 h 24.042 c 5.33,0 9.616,-4.144 9.616,-9.43 10e-4,-5.287 -4.286,-9.467 -9.616,-9.467 z"
         id="path11"
         style="fill:#0c0c0c;fill-opacity:1" /></g><g
       style="fill:#00ff66;fill-opacity:1"
       id="g2"
       transform="matrix(0.1044908,0,0,0.1044908,54.417283,90.969259)"><path
         d="m 255.413,147.195 c -5.044,-2.812 -15.403,-9.266 -23.638,-16.198 8.415,-5.436 18.043,-10.489 20.078,-11.392 2.528,-1.122 3.668,-4.081 2.547,-6.609 -1.123,-2.529 -4.081,-3.67 -6.609,-2.547 -3.014,1.338 -17.239,8.867 -26.895,15.837 H 203.68 c -5.669,0 -11.276,-1.181 -16.463,-3.468 -14.435,-6.365 -23.085,-21.346 -21.379,-37.03 0.626,-5.76 2.483,-11.318 5.444,-16.298 l 5.704,-9.594 c 14.034,-1.87 27.56,-7.069 39.22,-15.105 2.187,-1.507 3.064,-4.438 1.751,-6.748 -1.476,-2.596 -4.82,-3.314 -7.217,-1.651 -6,4.165 -15.134,9.22 -26.952,12.064 l 8.453,-14.217 c 1.337,-2.248 0.891,-5.234 -1.218,-6.782 -2.419,-1.775 -5.779,-1.048 -7.278,1.471 l -21.544,36.233 c -2.826,4.753 -6.582,8.886 -11.044,12.152 -12.729,9.318 -30.028,9.318 -42.757,0 -4.61,-3.375 -8.446,-7.697 -11.248,-12.677 L 86.467,45.651 C 88.342,34.01 85.874,13.511 83.586,5.675 82.83,3.088 80.2,1.388 77.577,2.008 c -2.835,0.67 -4.479,3.575 -3.651,6.322 1.982,6.574 3.743,22.643 3.016,32.538 -7.472,-2.106 -14.741,-5.206 -19.164,-8.224 -2.13,-1.453 -5.075,-1.237 -6.769,0.707 -1.997,2.293 -1.517,5.741 0.913,7.423 6,4.154 19.198,9.099 26.341,10.724 l 10.362,18.411 c 2.755,4.894 4.488,10.297 5.096,15.88 v 0 c 1.706,15.683 -6.944,30.665 -21.379,37.03 -5.187,2.287 -10.794,3.468 -16.463,3.468 H 43.376 C 34.993,114.301 32.277,110.191 32.25,110.149 c -1.523,-2.309 -4.628,-2.949 -6.938,-1.427 -2.31,1.522 -2.949,4.627 -1.428,6.936 0.095,0.144 1.931,2.924 7.281,10.628 H 7.224 c -2.616,0 -4.952,1.912 -5.2,4.517 -0.285,2.987 2.056,5.5 4.985,5.5 h 22.769 c -5.411,5.665 -12.411,12.135 -18.617,16.614 -1.999,1.443 -2.609,4.147 -1.37,6.279 l 0.093,0.16 c 1.508,2.597 4.89,3.312 7.291,1.566 9.494,-6.904 20.299,-17.645 26.014,-24.619 h 12.703 c 5.665,0 11.269,1.18 16.452,3.466 14.434,6.364 23.084,21.345 21.378,37.028 v 0 c -0.609,5.598 -2.342,11.016 -5.096,15.929 l -9.924,17.7 c -16.216,2.254 -31.256,11.813 -31.922,12.241 -2.327,1.496 -2.958,4.567 -1.506,6.921 1.883,3.054 5.574,2.321 6.921,1.506 0.781,-0.472 9.107,-5.791 19.967,-9.002 l -1.946,3.581 c -1.32,2.38 -0.5,5.379 1.847,6.757 v 0 c 2.425,1.424 5.547,0.575 6.917,-1.881 l 7.215,-13.006 c 0,0 0,0 0,0 l 10.998,-19.617 c 2.787,-4.971 6.61,-9.287 11.208,-12.653 12.729,-9.319 30.028,-9.319 42.757,0 5.314,3.89 9.633,8.98 12.607,14.855 l 15.312,30.251 c 1.252,2.467 4.267,3.451 6.733,2.199 2.466,-1.252 3.451,-4.266 2.199,-6.733 l -8.87,-17.583 c 7.174,1.609 16.973,4.753 24.166,10.444 2.274,1.799 5.543,0.929 7.04,-0.775 1.825,-2.079 1.384,-5.311 -0.775,-7.04 -12.063,-9.671 -29.382,-12.922 -36.132,-13.862 l -3.826,-7.537 c -2.014,-3.969 -3.293,-8.27 -3.775,-12.694 -1.706,-15.683 6.943,-30.664 21.378,-37.028 v 0 c 5.184,-2.286 10.787,-3.466 16.453,-3.466 h 18.958 c 9.23,8.339 22.01,16.333 27.908,19.641 2.37,1.329 5.57,0.216 6.814,-1.936 1.385,-2.395 0.481,-5.467 -1.935,-6.814 z m -142.328,-1.988 c -9.22,0 -16.695,-6.229 -16.695,-13.912 0,-7.683 7.474,-13.912 16.695,-13.912 9.22,0 16.695,6.229 16.695,13.912 0,7.683 -7.475,13.912 -16.695,13.912 z"
         id="path1-2"
         style="fill:#00ff66;fill-opacity:1" /></g><path
       style="fill:#0a0a00;fill-opacity:1;fill-rule:nonzero;stroke:#000000;stroke-width:2.63132;stroke-linecap:round;stroke-linejoin:round;stroke-dasharray:none;stroke-opacity:1"
       d="m 52.951457,128.78008 c 0,8.50777 0,8.50777 0,8.50777"
       id="path29" /><circle
       style="fill:#ff006e;fill-opacity:1;fill-rule:nonzero;stroke:#000000;stroke-width:1.1;stroke-linecap:round;stroke-linejoin:round;stroke-dasharray:none;stroke-opacity:1"
       id="path30"
       cx="53.213589"
       cy="128.18446"
       r="5.2427182" /></g><style
     type="text/css"
     id="style1">
	.st0{fill:#000000;}
</style></svg>
